<?xml version="1.0" encoding="utf-8"?>
<!-- Generator: Adobe Illustrator 18.0.0, SVG Export Plug-In . SVG Version: 6.00 Build 0)  -->
<!DOCTYPE svg PUBLIC "-//W3C//DTD SVG 1.1//EN" "http://www.w3.org/Graphics/SVG/1.1/DTD/svg11.dtd">
<svg version="1.1" id="svg_reflux" xmlns="http://www.w3.org/2000/svg" xmlns:xlink="http://www.w3.org/1999/xlink" x="0px" y="0px"
	 viewBox="0 0 612 792" enable-background="new 0 0 612 792" xml:space="preserve">
<path id="svg_reflux_color_t1" fill="#FFFFFF" stroke="#000000" stroke-miterlimit="10" d="M205.7,458v13.2c0,0-84.5,18.5-84.5,47.5
	v245.5c0,5.3,5.3,10.6,10.6,10.6h187.4c5.3,0,10.6-5.3,10.6-10.6v-198h10.6v-10.6h-10.6v-37c0-31.7-84.5-47.5-84.5-47.5V458H205.7z"
	/>
<polygon id="svg_reflux_color_t2" fill="#FFFFFF" stroke="#000000" stroke-miterlimit="10" points="258.2,257.7 245.3,257.7 
	245.3,235 205.7,235 205.7,448.8 245.3,448.8 245.3,268 258.2,268 "/>
<path id="svg_reflux_color_t3" fill="#FFFFFF" stroke="#000000" stroke-miterlimit="10" d="M205.7,146.5v29
	c-34.3,0-60.7,10.6-60.7,37v116.2c5.3,13.2,5.3,42.2,5.3,42.2h5.3c0,0,0-29,5.3-42.2V217.8c0-26.4,44.9-21.1,44.9-21.1v29h39.6
	v-34.3h13.2v-10.6h-13.2v-34.3H205.7z M205.7,64.7v72.6h39.6V56.5c-14,7.4-28,7.4-39.6,0V64.7z"/>
<path id="svg_ten" fill="#FFFFFF" stroke="#000000" stroke-miterlimit="10" d="M258.5,707.5h52.8c2.9,0,5.3,2.4,5.3,5.3l0,0
	c0,2.9-2.4,5.3-5.3,5.3h-52.8c-2.9,0-5.3-2.4-5.3-5.3l0,0C253.2,709.9,255.6,707.5,258.5,707.5z M258.5,683.8h52.8
	c2.9,0,5.3,2.4,5.3,5.3l0,0c0,2.9-2.4,5.3-5.3,5.3h-52.8c-2.9,0-5.3-2.4-5.3-5.3l0,0C253.2,686.1,255.6,683.8,258.5,683.8z
	 M258.5,731.3h87.1c2.9,0,5.3,2.4,5.3,5.3l0,0c0,2.9-2.4,5.3-5.3,5.3h-87.1c-2.9,0-5.3-2.4-5.3-5.3l0,0
	C253.2,733.7,255.6,731.3,258.5,731.3z"/>
<path id="svg_reflux_color_t4" fill="#FFFFFF" stroke="#000000" stroke-miterlimit="10" d="M200.4,71.3h73.9c2.9,0,5.3,2.4,5.3,5.3
	l0,0c0,2.9-2.4,5.3-5.3,5.3h-73.9c-2.9,0-5.3-2.4-5.3-5.3l0,0C195.1,73.7,197.5,71.3,200.4,71.3z M200.4,92.4h52.8
	c2.9,0,5.3,2.4,5.3,5.3l0,0c0,2.9-2.4,5.3-5.3,5.3h-52.8c-2.9,0-5.3-2.4-5.3-5.3l0,0C195.1,94.8,197.5,92.4,200.4,92.4z
	 M200.4,113.5h52.8c2.9,0,5.3,2.4,5.3,5.3l0,0c0,2.9-2.4,5.3-5.3,5.3h-52.8c-2.9,0-5.3-2.4-5.3-5.3l0,0
	C195.1,115.9,197.5,113.5,200.4,113.5z"/>
<path id="svg_reflux_start" fill="none" stroke="#000000" stroke-miterlimit="10" d="M225.2,11.6v21.1 M234.7,18.2
	c4.8,3.2,7.7,8.4,7.7,14.3c0,9.5-7.7,17.2-17.2,17.2c-9.5,0-17.2-7.7-17.2-17.2c0-5.8,2.9-11.1,7.7-14.3"/>
<g id="sensor_ten">
	<path fill="none" stroke="#000000" stroke-miterlimit="10" d="M487.7,763.7h-94.5c0-8.7-7.1-15.6-15.8-15.6c-4.5,0-8.4,1.8-11.4,5
		l-12.9-12.9 M366,752.9c-2.6,2.9-4.5,6.6-4.5,10.8c0,8.7,7.1,15.8,15.8,15.8c8.7,0,15.8-7.1,15.8-15.8c0,0,0,0,0-0.3"/>
	
		<text transform="matrix(1 0 0 1 367.4595 773.2296)" display="none" enable-background="new    " font-family="'ArialMT'" font-size="26.4">t1</text>
	<text id="svg_ten_t" transform="matrix(1 0 0 1 401.0396 759.1091)" font-family="'ArialMT'" font-size="31.68">100%</text>
</g>
<g id="sensor_1">
	<path fill="none" stroke="#000000" stroke-miterlimit="10" d="M479.7,592.7h-94.5c0-8.7-7.1-15.6-15.8-15.6c-4.5,0-8.4,1.8-11.4,5
		l-12.9-12.9 M358,581.9c-2.6,2.9-4.5,6.6-4.5,10.8c0,8.7,7.1,15.8,15.8,15.8c8.7,0,15.8-7.1,15.8-15.8c0,0,0,0,0-0.3"/>
	<text transform="matrix(1 0 0 1 359.4595 602.2296)" font-family="'ArialMT'" font-size="26.4">t1</text>
	<text id="svg_reflux_t1" transform="matrix(1 0 0 1 411.6007 589.7093)" font-family="'ArialMT'" font-size="31.68">20</text>
</g>
<g id="sensor_2">
	<path fill="none" stroke="#000000" stroke-miterlimit="10" d="M397.9,293h-94.5c0-8.7-7.1-15.6-15.8-15.6c-4.5,0-8.4,1.8-11.4,5
		l-12.9-12.9 M276.2,282.2c-2.6,2.9-4.5,6.6-4.5,10.8c0,8.7,7.1,15.8,15.8,15.8s15.8-7.1,15.8-15.8c0,0,0,0,0-0.3"/>
	<text transform="matrix(1 0 0 1 276.6303 302.2789)" font-family="'ArialMT'" font-size="26.4">t2</text>
	<text id="svg_reflux_t2" transform="matrix(1 0 0 1 327.1198 290.3992)" font-family="'ArialMT'" font-size="31.68">20</text>
</g>
<g id="sensor_3">
	<path fill="none" stroke="#000000" stroke-miterlimit="10" d="M397.1,213.8h-94.2c0-8.7-7.1-15.6-15.8-15.6c-4.5,0-8.4,1.8-11.4,5
		l-13.2-13.2 M275.4,203c-2.6,2.9-4.5,6.6-4.5,10.8c0,8.7,7.1,15.8,15.8,15.8s15.8-7.1,15.8-15.8c0,0,0,0,0-0.3"/>
	<text transform="matrix(1 0 0 1 276.0463 224.0934)" font-family="'ArialMT'" font-size="26.4">t3</text>
	<text id="svg_reflux_t3" transform="matrix(1 0 0 1 327.1198 211.1988)" font-family="'ArialMT'" font-size="31.68">20</text>
</g>
<g id="sensor_4">
	<path fill="none" stroke="#000000" stroke-miterlimit="10" d="M416.4,104.3h-94.5c0-8.7-7.1-15.6-15.8-15.6c-4.5,0-8.4,1.8-11.4,5
		l-12.9-12.9 M294.6,93.5c-2.6,2.9-4.5,6.6-4.5,10.8c0,8.7,7.1,15.8,15.8,15.8s15.8-7.1,15.8-15.8c0,0,0,0,0-0.3"/>
	<text transform="matrix(1 0 0 1 295.5496 113.8496)" font-family="'ArialMT'" font-size="26.4">t4</text>
	<text id="svg_reflux_t4" transform="matrix(1 0 0 1 348.24 100.9793)" font-family="'ArialMT'" font-size="31.68">20</text>
</g>
</svg>
