<?xml version="1.0" encoding="utf-8"?>
<!-- Generator: Adobe Illustrator 18.0.0, SVG Export Plug-In . SVG Version: 6.00 Build 0)  -->
<!DOCTYPE svg PUBLIC "-//W3C//DTD SVG 1.1//EN" "http://www.w3.org/Graphics/SVG/1.1/DTD/svg11.dtd">
<svg version="1.1" id="svg_" xmlns="http://www.w3.org/2000/svg" xmlns:xlink="http://www.w3.org/1999/xlink" x="0px" y="0px"
	 viewBox="0 140 160 160" enable-background="new 0 140 160 160" xml:space="preserve">
<path id="cub" fill="#FFFFFF" stroke="#000000" stroke-miterlimit="10" d="M13,289.5c0,2.2,1.8,4,4,4h71c2.2,0,4-1.8,4-4v-75h4v-4
	h-4v-25H13V289.5z"/>
<path id="ten" fill="#FFFFFF" stroke="#000000" stroke-miterlimit="10" d="M65,268h20c1.1,0,2,0.9,2,2l0,0c0,1.1-0.9,2-2,2H65
	c-1.1,0-2-0.9-2-2l0,0C63,268.9,63.9,268,65,268z M65,259h20c1.1,0,2,0.9,2,2l0,0c0,1.1-0.9,2-2,2H65c-1.1,0-2-0.9-2-2l0,0
	C63,259.9,63.9,259,65,259z M65,277h33c1.1,0,2,0.9,2,2l0,0c0,1.1-0.9,2-2,2H65c-1.1,0-2-0.9-2-2l0,0C63,277.9,63.9,277,65,277z"/>
<text id="t0" transform="matrix(1 0 0 1 129.1035 286.7083)" font-family="'ArialMT'" font-size="12">100</text>
<text id="t1" transform="matrix(1 0 0 1 128.4369 223.375)" font-family="'ArialMT'" font-size="12">100</text>
<text id="t2" transform="matrix(1 0 0 1 112.069 166.25)" font-family="'ArialMT'" font-size="12">78</text>
<path fill="none" stroke="#000000" stroke-miterlimit="10" d="M52.4,148.7v8 M56,151.2c1.8,1.2,2.9,3.2,2.9,5.4
	c0,3.6-2.9,6.5-6.5,6.5s-6.5-2.9-6.5-6.5c0-2.2,1.1-4.2,2.9-5.4"/>
<g>
	<path fill="none" stroke="#000000" stroke-miterlimit="10" d="M153.1,289.5h-35.7c0-3.3-2.7-5.9-6-5.9c-1.7,0-3.2,0.7-4.3,1.9
		l-4.9-4.9 M107,285.4c-1,1.1-1.7,2.5-1.7,4.1c0,3.3,2.7,6,6,6s6-2.7,6-6c0,0,0,0,0-0.1"/>
	
		<text id="text1_1_" transform="matrix(1 0 0 1 107.5833 293.1173)" display="none" enable-background="new    " font-family="'ArialMT'" font-size="10">t1</text>
</g>
<g>
	<path fill="none" stroke="#000000" stroke-miterlimit="10" d="M148.8,224.5H113c0-3.3-2.7-5.9-6-5.9c-1.7,0-3.2,0.7-4.3,1.9
		l-4.9-4.9 M102.7,220.4c-1,1.1-1.7,2.5-1.7,4.1c0,3.3,2.7,6,6,6s6-2.7,6-6c0,0,0,0,0-0.1"/>
	<text id="text1" transform="matrix(1 0 0 1 103.25 228.1173)" font-family="'ArialMT'" font-size="10">t1</text>
</g>
<g>
	<path fill="none" stroke="#000000" stroke-miterlimit="10" d="M75.3,176.3l4.9-4.9c1.1,1.1,2.6,1.9,4.3,1.9c3.3,0,6-2.7,6-5.9h35.7
		 M90.6,167.3C90.6,167.3,90.6,167.3,90.6,167.3c0-3.4-2.7-6.1-6-6.1s-6,2.7-6,6c0,1.6,0.6,3.1,1.7,4.1"/>
	<text id="text2" transform="matrix(1 0 0 1 80.4167 170.75)" font-family="'ArialMT'" font-size="10">t2</text>
</g>
<path id="circulation" fill="#FFFFFF" stroke="#000000" stroke-miterlimit="10" d="M17.9,273.8H8.8c-0.6,0-1-0.4-1-1v-98
	c0-0.6,0.4-1,1-1h56.5c0.6,0,1,0.4,1,1v7.5h3v-2.4h3.2v-3h-3.2v-3.1v-1c0-1.1-0.9-2-2-2h-1H7.8h-1c-1.1,0-2,0.9-2,2v1v100v1
	c0,1.1,0.9,2,2,2h1h10.2V273.8z"/>
</svg>
